# xmcd
#
# Track frame offsets:
#	150
#	22286
#	38364
#	51367
#	70706
#	86995
#	101434
#	117262
#	133182
#	148204
#	163176
#	177860
#	191050
#	202573
#	220445
#	232988
#	248968
#
# Disc length: 3502 seconds
#
# Revision: 1
# Processed by: cddbd v1.5.2PL0 Copyright (c) Steve Scherf et al.
# Submitted via: audiograbber 1.80
#
DISCID=f90dac11
DTITLE=FLAMENGO FILES - FF
DYEAR=1900
DGENRE=
TTITLE0=HUMME - FREMTIDEN ER HER
TTITLE1=TORRPEDORR - ROCKFAR
TTITLE2=PATO - DET BEDSTE TILMIG OG MINE VENNER
TTITLE3=MUSTI and AMIN MED GIGASUS - VORES KAMP
TTITLE4=SPHAEREN - HOLD DEM HØJT
TTITLE5=GIGASUS feat JOKEREN - TIL DEN ANDEN SIDE
TTITLE6=MUSTI and AMIN - HÅRD SOM TITANIUM
TTITLE7=KAYREEM - SMÅ TRIX
TTITLE8=MARTIN J - KOM EN, KOM ALLE
TTITLE9=ORGANISERET RIMANITET - DET FLOT MAKKER
TTITLE10=PÅTVÆRS - CRUISER
TTITLE11=GIGASUS - F.L.A.M.I.N.G.O.
TTITLE12=STIK OP JACOB - ALT PÅ MIG
TTITLE13=JACOB VALBJØRN - FREAKSHOW
TTITLE14=LOMMEN FULD AF GULD - TORRPEDORR
TTITLE15=HUMME - FATTIGERE END LORT
TTITLE16=KAYREEM feat U$O - DIN MAND
EXTD=
EXTT0=
EXTT1=
EXTT2=
EXTT3=
EXTT4=
EXTT5=
EXTT6=
EXTT7=
EXTT8=
EXTT9=
EXTT10=
EXTT11=
EXTT12=
EXTT13=
EXTT14=
EXTT15=
EXTT16=
PLAYORDER=
